<?xml version="1.0" standalone="no"?>
<!DOCTYPE svg PUBLIC "-//W3C//DTD SVG 20010904//EN"
 "http://www.w3.org/TR/2001/REC-SVG-20010904/DTD/svg10.dtd">
<svg version="1.0" xmlns="http://www.w3.org/2000/svg"
 width="200.000000pt" height="200.000000pt" viewBox="0 0 200.000000 200.000000"
 preserveAspectRatio="xMidYMid meet">

<g transform="translate(0.000000,200.000000) scale(0.100000,-0.100000)"
fill="#6c8ee3" stroke="none">
<path d="M931 1878 c-377 -41 -675 -298 -772 -663 -30 -113 -30 -317 0 -430
73 -275 275 -506 530 -604 150 -58 192 -62 652 -61 230 0 424 3 432 6 20 7 39
53 32 75 -4 11 -31 61 -61 112 -29 50 -54 95 -54 99 0 4 23 47 50 95 180 313
166 701 -35 1003 -172 259 -473 402 -774 368z m-18 -95 c-30 -61 -71 -204 -88
-307 l-6 -38 -72 6 c-162 15 -168 17 -161 40 14 48 93 173 147 232 41 45 79
73 129 99 39 19 74 35 78 35 3 0 -9 -30 -27 -67z m146 46 c42 -45 95 -202 116
-340 l7 -46 -54 -6 c-68 -9 -158 -9 -226 0 l-53 6 7 46 c3 25 17 87 29 137 47
186 115 266 174 203z m144 -22 c79 -41 149 -122 203 -232 24 -50 44 -96 44
-102 0 -12 -40 -19 -162 -29 l-77 -7 -6 39 c-27 159 -69 293 -107 347 l-21 29
34 -7 c19 -4 60 -21 92 -38z m-432 -17 c-69 -55 -133 -138 -182 -237 -27 -54
-47 -83 -58 -83 -25 1 -180 36 -187 43 -18 18 101 134 209 204 68 45 102 61
192 94 76 28 82 23 26 -21z m594 -16 c92 -44 195 -123 256 -196 27 -32 49 -63
49 -67 0 -11 -176 -45 -189 -36 -6 3 -11 12 -11 20 0 7 -21 55 -46 105 -34 68
-64 110 -111 157 -71 72 -65 74 52 17z m-980 -303 c22 -5 65 -14 95 -21 l56
-11 -28 -109 c-15 -61 -31 -156 -35 -213 l-8 -102 -152 -3 -153 -3 0 28 c0 92
41 244 93 348 44 88 58 106 76 101 9 -3 34 -9 56 -15z m1343 -48 c43 -84 80
-192 97 -290 24 -136 37 -123 -129 -123 l-143 0 -8 100 c-3 55 -17 151 -29
213 -13 61 -23 113 -22 114 3 3 169 40 187 42 10 1 28 -21 47 -56z m-965 -8
c48 -5 57 -9 53 -23 -6 -19 -26 -285 -26 -344 l0 -38 -144 0 c-80 0 -147 3
-149 8 -15 24 30 311 61 393 10 25 11 25 79 18 37 -5 94 -11 126 -14z m732
-122 c9 -48 19 -132 22 -185 l6 -98 -140 0 -141 0 -7 138 c-4 75 -10 165 -14
199 l-7 62 50 5 c28 3 83 9 121 14 70 8 70 8 82 -20 7 -15 20 -67 28 -115z
m-301 60 c3 -32 9 -122 13 -200 l6 -143 -198 0 -198 0 7 140 c3 77 9 167 13
200 l6 60 172 0 172 0 7 -57z m-721 -470 c4 -57 20 -152 35 -213 l28 -109 -56
-11 c-54 -11 -118 -26 -152 -36 -20 -6 -78 92 -116 195 -25 69 -51 193 -52
249 l0 33 153 -3 152 -3 8 -102z m322 -25 c4 -73 10 -162 15 -198 4 -36 6 -66
5 -68 -5 -5 -246 -24 -251 -20 -24 25 -83 396 -65 414 2 2 68 4 147 4 l142 0
7 -132z m411 -25 c-4 -87 -10 -176 -14 -198 l-7 -40 -171 -3 -171 -2 -6 60
c-4 33 -10 123 -13 200 l-7 140 198 0 198 0 -7 -157z m313 45 c-1 -159 -6
-166 -55 -82 -28 50 -46 70 -63 72 -50 7 -69 -6 -110 -81 -69 -125 -67 -126
-57 48 l9 155 139 0 138 0 -1 -112z m321 73 c0 -61 -28 -206 -55 -284 -24 -68
-102 -217 -114 -217 -3 0 -36 53 -72 118 l-67 117 8 60 c5 33 9 102 9 153 l1
92 145 0 145 0 0 -39z m-432 -113 c22 -29 372 -642 372 -654 0 -7 -7 -20 -16
-28 -13 -14 -61 -16 -369 -16 -351 0 -400 4 -411 35 -3 8 29 74 73 152 44 76
126 219 183 318 101 176 121 205 146 205 6 0 16 -6 22 -12z m-272 -276 c20 -7
15 -19 -82 -185 l-103 -179 -21 42 c-23 45 -63 191 -74 272 l-7 47 33 4 c54 6
231 6 254 -1z m-311 -39 c16 -94 57 -241 84 -299 34 -74 29 -78 -47 -40 -59
30 -130 93 -176 154 -39 54 -111 190 -104 198 6 5 138 21 195 23 41 1 42 0 48
-36z m-236 -75 c49 -100 113 -183 182 -238 28 -22 46 -40 40 -40 -26 0 -177
62 -232 96 -111 67 -254 202 -235 221 7 8 152 41 182 42 18 1 30 -15 63 -81z"/>
<path d="M1370 560 c0 -100 4 -160 10 -160 6 0 10 60 10 160 0 100 -4 160 -10
160 -6 0 -10 -60 -10 -160z"/>
<path d="M1350 306 c-28 -35 11 -93 48 -70 35 22 22 84 -18 84 -10 0 -23 -7
-30 -14z m45 -25 c7 -12 -12 -24 -25 -16 -11 7 -4 25 10 25 5 0 11 -4 15 -9z"/>
</g>
</svg>
